<svg id="Layer_1" data-name="Layer 1" xmlns="http://www.w3.org/2000/svg" viewBox="0 0 41.94 80.16"><defs><style>.cls-1{fill:#999e38;}.cls-2{fill:none;}.cls-3{fill:#b2c235;}.cls-4{fill:#a2aa38;}.cls-5{fill:#acb737;}</style></defs><path class="cls-1" d="M267.08,385.88h0a12,12,0,0,1,1.93,1l0,0,.18.1a21.18,21.18,0,0,1,6.25,5.51A21.81,21.81,0,0,1,277.6,396a20.8,20.8,0,0,1,1.4,3.77,20.93,20.93,0,0,1-2.09,15.91l-17,29.39-12.11-7L264,410c.28-.46.56-.92.82-1.38a37.18,37.18,0,0,0,5-14.12,13.78,13.78,0,0,0-.33-5.35A5.21,5.21,0,0,0,267.2,386l-.12-.06Z" transform="translate(-237.78 -364.86)"/><path class="cls-2" d="M279.67,403.69a20.46,20.46,0,0,0-.67-4,20.8,20.8,0,0,0-1.4-3.77,21.81,21.81,0,0,0-2.12-3.46,21.18,21.18,0,0,0-6.25-5.51l-.18-.1,0,0a12,12,0,0,0-1.93-1h0l.12.06a5.21,5.21,0,0,1,2.31,3.22,13.8,13.8,0,0,1,.33,5.35,37.18,37.18,0,0,1-5,14.12c-.26.46-.54.92-.82,1.38l-6.64,11.49a20.74,20.74,0,0,1,12.77,5.85l6.77-11.73a21,21,0,0,0,2.65-7.89A20.3,20.3,0,0,0,279.67,403.69Z" transform="translate(-237.78 -364.86)"/><path class="cls-3" d="M247.83,438l12.11,7,10.2-17.66a20.74,20.74,0,0,0-12.77-5.85Z" transform="translate(-237.78 -364.86)"/><path class="cls-2" d="M279.15,400.37c0-.22-.09-.44-.15-.65a20.8,20.8,0,0,0-1.4-3.77,21.81,21.81,0,0,0-2.12-3.46,21.18,21.18,0,0,0-6.25-5.51l-.18-.1,0,0a12,12,0,0,0-1.93-1h0l.12.06a5.21,5.21,0,0,1,2.31,3.22,11.76,11.76,0,0,1,.42,2.74A20.91,20.91,0,0,1,279.15,400.37Z" transform="translate(-237.78 -364.86)"/><path class="cls-2" d="M261.1,431.6a20.64,20.64,0,0,1-8.5-1.83L247.83,438l12.11,7,8.54-14.79A20.72,20.72,0,0,1,261.1,431.6Z" transform="translate(-237.78 -364.86)"/><path class="cls-4" d="M268.48,430.23l8.43-14.6a21,21,0,0,0,2.65-7.89,20.3,20.3,0,0,0,.11-4.05,21.84,21.84,0,0,0-.52-3.32,20.91,20.91,0,0,0-9.22-8.46,18.07,18.07,0,0,1-.09,2.61,37.18,37.18,0,0,1-5,14.12c-.26.46-.54.92-.82,1.38L252.6,429.77a20.61,20.61,0,0,0,15.88.46Z" transform="translate(-237.78 -364.86)"/><path class="cls-2" d="M279.67,403.69a21.84,21.84,0,0,0-.52-3.32,20.91,20.91,0,0,0-9.22-8.46,18.07,18.07,0,0,1-.09,2.61c0,.5-.13,1-.21,1.53a20.83,20.83,0,0,1,9.29,14.77,21.59,21.59,0,0,0,.64-3.08A20.3,20.3,0,0,0,279.67,403.69Z" transform="translate(-237.78 -364.86)"/><path class="cls-5" d="M269.63,396.05a39.19,39.19,0,0,1-4.8,12.59c-.26.46-.54.92-.82,1.38L252.6,429.77a20.61,20.61,0,0,0,15.88.46l8.43-14.6a20.65,20.65,0,0,0,1.74-3.87c.11-.31.18-.63.27-.94A20.83,20.83,0,0,0,269.63,396.05Z" transform="translate(-237.78 -364.86)"/><path class="cls-2" d="M269.63,396.05a32.46,32.46,0,0,1-1.19,4.65,20.72,20.72,0,0,1,5.33,20.37l3.14-5.44a20.65,20.65,0,0,0,1.74-3.87c.11-.31.18-.63.27-.94A20.83,20.83,0,0,0,269.63,396.05Z" transform="translate(-237.78 -364.86)"/><path class="cls-2" d="M268.37,430.27l.11,0,.12-.2Z" transform="translate(-237.78 -364.86)"/><path class="cls-3" d="M268.44,400.7a43.18,43.18,0,0,1-3.61,7.94c-.26.46-.54.92-.82,1.38L252.6,429.77a20.64,20.64,0,0,0,8.5,1.83,20.89,20.89,0,0,0,7.27-1.33l.23-.24,5.17-9a20.72,20.72,0,0,0-5.33-20.37Z" transform="translate(-237.78 -364.86)"/><path class="cls-2" d="M269.63,396.05a32.46,32.46,0,0,1-1.19,4.65,20.72,20.72,0,0,1,5.33,20.37l3.14-5.44a20.65,20.65,0,0,0,1.74-3.87c.11-.31.18-.63.27-.94A20.83,20.83,0,0,0,269.63,396.05Z" transform="translate(-237.78 -364.86)"/><path class="cls-2" d="M268.37,430.27l.11,0,.12-.2Z" transform="translate(-237.78 -364.86)"/><path class="cls-3" d="M268.44,400.7a43.18,43.18,0,0,1-3.61,7.94c-.26.46-.54.92-.82,1.38L252.6,429.77a20.64,20.64,0,0,0,8.5,1.83,20.89,20.89,0,0,0,7.27-1.33l.23-.24,5.17-9a20.72,20.72,0,0,0-5.33-20.37Z" transform="translate(-237.78 -364.86)"/><path class="cls-1" d="M250.42,424h0a13.43,13.43,0,0,1-1.93-1l0,0-.18-.11a21.1,21.1,0,0,1-3.45-2.48,20.62,20.62,0,0,1-2.8-3,21.72,21.72,0,0,1-2.12-3.45,21.37,21.37,0,0,1-1.4-3.77,20.59,20.59,0,0,1-.67-4,21.08,21.08,0,0,1,.11-4.05,20.36,20.36,0,0,1,.91-4,21,21,0,0,1,1.74-3.88l17-29.39,12.11,7-16.18,28c-.28.45-.56.92-.82,1.38a37.13,37.13,0,0,0-5,14.12,13.73,13.73,0,0,0,.33,5.34,5.27,5.27,0,0,0,2.31,3.23l.12.06h0Z" transform="translate(-237.78 -364.86)"/><path class="cls-2" d="M237.83,406.2a20.59,20.59,0,0,0,.67,4,21.37,21.37,0,0,0,1.4,3.77,21.72,21.72,0,0,0,2.12,3.45,20.62,20.62,0,0,0,2.8,3,21.1,21.1,0,0,0,3.45,2.48l.18.11,0,0a13.43,13.43,0,0,0,1.93,1h0l-.12-.06a5.27,5.27,0,0,1-2.31-3.23,13.73,13.73,0,0,1-.33-5.34,37.13,37.13,0,0,1,5-14.12c.26-.46.54-.93.82-1.38l6.64-11.49a20.74,20.74,0,0,1-12.77-5.85l-6.77,11.72a21,21,0,0,0-1.74,3.88,20.36,20.36,0,0,0-.91,4A21.08,21.08,0,0,0,237.83,406.2Z" transform="translate(-237.78 -364.86)"/><path class="cls-3" d="M269.67,371.85l-12.11-7-10.2,17.67a20.74,20.74,0,0,0,12.77,5.85Z" transform="translate(-237.78 -364.86)"/><path class="cls-2" d="M238.35,409.52c.06.21.09.43.15.65a21.37,21.37,0,0,0,1.4,3.77,21.72,21.72,0,0,0,2.12,3.45,20.62,20.62,0,0,0,2.8,3,21.1,21.1,0,0,0,3.45,2.48l.18.11,0,0a13.43,13.43,0,0,0,1.93,1h0l-.12-.06a5.27,5.27,0,0,1-2.31-3.23,11.76,11.76,0,0,1-.42-2.73A21,21,0,0,1,238.35,409.52Z" transform="translate(-237.78 -364.86)"/><path class="cls-2" d="M256.4,378.29a20.8,20.8,0,0,1,8.5,1.82l4.77-8.26-12.11-7L249,379.66A20.72,20.72,0,0,1,256.4,378.29Z" transform="translate(-237.78 -364.86)"/><path class="cls-4" d="M249,379.66l-8.43,14.59a21,21,0,0,0-1.74,3.88,20.36,20.36,0,0,0-.91,4,21.08,21.08,0,0,0-.11,4.05,22.24,22.24,0,0,0,.52,3.32,21,21,0,0,0,9.22,8.46,18.07,18.07,0,0,1,.09-2.61,37.13,37.13,0,0,1,5-14.12c.26-.46.54-.93.82-1.38l11.41-19.76a20.67,20.67,0,0,0-15.88-.45Z" transform="translate(-237.78 -364.86)"/><path class="cls-2" d="M237.83,406.2a22.24,22.24,0,0,0,.52,3.32,21,21,0,0,0,9.22,8.46,18.07,18.07,0,0,1,.09-2.61c.05-.5.13-1,.21-1.53a20.8,20.8,0,0,1-9.28-14.78,20.45,20.45,0,0,0-.65,3.09A21.08,21.08,0,0,0,237.83,406.2Z" transform="translate(-237.78 -364.86)"/><path class="cls-5" d="M247.87,413.84a39.1,39.1,0,0,1,4.8-12.59c.26-.46.54-.93.82-1.38l11.41-19.76a20.67,20.67,0,0,0-15.88-.45l-8.43,14.59a21,21,0,0,0-1.74,3.88c-.11.3-.18.62-.26.93A20.8,20.8,0,0,0,247.87,413.84Z" transform="translate(-237.78 -364.86)"/><path class="cls-2" d="M247.87,413.84a32.58,32.58,0,0,1,1.19-4.66,20.7,20.7,0,0,1-5.33-20.36l-3.14,5.43a21,21,0,0,0-1.74,3.88c-.11.3-.18.62-.26.93A20.8,20.8,0,0,0,247.87,413.84Z" transform="translate(-237.78 -364.86)"/><path class="cls-2" d="M249.13,379.62l-.11,0-.12.19Z" transform="translate(-237.78 -364.86)"/><path class="cls-3" d="M249.06,409.18a43.1,43.1,0,0,1,3.61-7.93c.26-.46.54-.93.82-1.38l11.41-19.76a20.66,20.66,0,0,0-15.77-.49l-.23.23-5.17,9a20.7,20.7,0,0,0,5.33,20.36Z" transform="translate(-237.78 -364.86)"/><path class="cls-2" d="M247.87,413.84a32.58,32.58,0,0,1,1.19-4.66,20.7,20.7,0,0,1-5.33-20.36l-3.14,5.43a21,21,0,0,0-1.74,3.88c-.11.3-.18.62-.26.93A20.8,20.8,0,0,0,247.87,413.84Z" transform="translate(-237.78 -364.86)"/><path class="cls-2" d="M249.13,379.62l-.11,0-.12.19Z" transform="translate(-237.78 -364.86)"/><path class="cls-3" d="M249.06,409.18a43.1,43.1,0,0,1,3.61-7.93c.26-.46.54-.93.82-1.38l11.41-19.76a20.66,20.66,0,0,0-15.77-.49l-.23.23-5.17,9a20.7,20.7,0,0,0,5.33,20.36Z" transform="translate(-237.78 -364.86)"/></svg>